<svg xmlns="http://www.w3.org/2000/svg" width="48" height="46" fill="none"><path fill="color(display-p3 .5252 .23 1)" d="M26 45c-.7.8-2 .3-2-.8V34a2.3 2.3 0 0 0-2.3-2.2H10.3c-1 0-1.5-1-1-1.8l7.5-10.5c1.1-1.5 0-3.6-1.8-3.6H1.2c-.9 0-1.4-1-.9-1.8L10 .5q.3-.5 1-.5h28.8c1 0 1.5 1 1 1.8l-7.5 10.5c-1.1 1.5 0 3.5 1.8 3.5h11.4c1 0 1.5 1.1.9 1.9z"/><mask id="a" width="48" height="46" x="0" y="0" maskUnits="userSpaceOnUse" style="mask-type:alpha"><path fill="#000" d="M25.8 45c-.6.8-2 .3-2-.8V34a2.3 2.3 0 0 0-2.2-2.2H10.2c-1 0-1.5-1-1-1.8l7.5-10.5c1.1-1.5 0-3.6-1.8-3.6H1.1c-.9 0-1.4-1-.9-1.8L10 .5q.3-.5 1-.5h28.8c1 0 1.5 1 1 1.8l-7.5 10.5c-1.1 1.5 0 3.5 1.8 3.5h11.4c1 0 1.5 1.1.9 1.9z"/></mask><g mask="url(#a)"><g filter="url(#b)"><ellipse cx="5.5" cy="14.7" fill="color(display-p3 .9275 .9033 1)" rx="5.5" ry="14.7" transform="matrix(0 1 1 0 -4.5 31.5)"/></g><g filter="url(#c)"><ellipse cx="10.4" cy="29.9" fill="color(display-p3 .9275 .9033 1)" rx="10.4" ry="29.9" transform="matrix(0 1 1 0 -39.3 7.9)"/></g><g filter="url(#d)"><ellipse cx="5.5" cy="30.5" fill="color(display-p3 .4922 .0767 1)" rx="5.5" ry="30.5" transform="matrix(0 1 1 0 -40.5 11.3)"/></g><g filter="url(#e)"><ellipse cx="5.5" cy="30.6" fill="color(display-p3 .4922 .0767 1)" rx="5.5" ry="30.6" transform="matrix(0 1 1 0 -35.9 29.3)"/></g><g filter="url(#f)"><ellipse cx="5.5" cy="30.6" fill="color(display-p3 .4922 .0767 1)" rx="5.5" ry="30.6" transform="matrix(0 1 1 0 -34.3 30.5)"/></g><g filter="url(#g)"><ellipse cx="14.1" cy="22.1" fill="color(display-p3 .9275 .9033 1)" rx="14.1" ry="22.1" transform="matrix(0 -1 -1 0 74.3 26.9)"/></g><g filter="url(#h)"><ellipse cx="3.5" cy="21.5" fill="color(display-p3 .4922 .0767 1)" rx="3.5" ry="21.5" transform="matrix(0 -1 -1 0 75.8 18)"/></g><g filter="url(#i)"><ellipse cx="3.5" cy="21.5" fill="color(display-p3 .4922 .0767 1)" rx="3.5" ry="21.5" transform="matrix(0 -1 -1 0 75.8 18)"/></g><g filter="url(#j)"><ellipse cx=".4" cy="9" fill="color(display-p3 .4922 .0767 1)" rx="4.4" ry="29.1" transform="rotate(40 .4 9)"/></g><g filter="url(#k)"><ellipse cx="47.5" cy="-6.1" fill="color(display-p3 .4922 .0767 1)" rx="4.4" ry="29.1" transform="rotate(38 47.5 -6)"/></g><g filter="url(#l)"><ellipse cx="41.4" cy="6.3" fill="color(display-p3 .2799 .748 1)" rx="6" ry="9.7" transform="rotate(38 41.4 6.3)"/></g><g filter="url(#m)"><ellipse cx="-1.9" cy="38.3" fill="color(display-p3 .4922 .0767 1)" rx="4.4" ry="29.1" transform="rotate(38 -1.9 38.3)"/></g><g filter="url(#n)"><ellipse cx="-1.9" cy="38.3" fill="color(display-p3 .4922 .0767 1)" rx="4.4" ry="29.1" transform="rotate(38 -1.9 38.3)"/></g><g filter="url(#o)"><ellipse cx="35.7" cy="29.9" fill="color(display-p3 .4922 .0767 1)" rx="4.4" ry="29.1" transform="rotate(38 35.7 30)"/></g><g filter="url(#p)"><ellipse cx="38.4" cy="32.4" fill="color(display-p3 .2799 .748 1)" rx="6" ry="15.3" transform="rotate(38 38.4 32.4)"/></g></g><defs><filter id="b" width="60" height="41.7" x="-19.8" y="16.1" color-interpolation-filters="sRGB" filterUnits="userSpaceOnUse"><feFlood flood-opacity="0" result="BackgroundImageFix"/><feBlend in="SourceGraphic" in2="BackgroundImageFix" result="shape"/><feGaussianBlur result="effect1_foregroundBlur_2002_17158" stdDeviation="7.7"/></filter><filter id="c" width="90.3" height="51.4" x="-54.6" y="-7.5" color-interpolation-filters="sRGB" filterUnits="userSpaceOnUse"><feFlood flood-opacity="0" result="BackgroundImageFix"/><feBlend in="SourceGraphic" in2="BackgroundImageFix" result="shape"/><feGaussianBlur result="effect1_foregroundBlur_2002_17158" stdDeviation="7.7"/></filter><filter id="d" width="79.4" height="29.4" x="-49.6" y="2" color-interpolation-filters="sRGB" filterUnits="userSpaceOnUse"><feFlood flood-opacity="0" result="BackgroundImageFix"/><feBlend in="SourceGraphic" in2="BackgroundImageFix" result="shape"/><feGaussianBlur result="effect1_foregroundBlur_2002_17158" stdDeviation="4.6"/></filter><filter id="e" width="79.6" height="29.4" x="-45" y="20" color-interpolation-filters="sRGB" filterUnits="userSpaceOnUse"><feFlood flood-opacity="0" result="BackgroundImageFix"/><feBlend in="SourceGraphic" in2="BackgroundImageFix" result="shape"/><feGaussianBlur result="effect1_foregroundBlur_2002_17158" stdDeviation="4.6"/></filter><filter id="f" width="79.6" height="29.4" x="-43.5" y="21.2" color-interpolation-filters="sRGB" filterUnits="userSpaceOnUse"><feFlood flood-opacity="0" result="BackgroundImageFix"/><feBlend in="SourceGraphic" in2="BackgroundImageFix" result="shape"/><feGaussianBlur result="effect1_foregroundBlur_2002_17158" stdDeviation="4.6"/></filter><filter id="g" width="74.7" height="58.9" x="15.8" y="-17.9" color-interpolation-filters="sRGB" filterUnits="userSpaceOnUse"><feFlood flood-opacity="0" result="BackgroundImageFix"/><feBlend in="SourceGraphic" in2="BackgroundImageFix" result="shape"/><feGaussianBlur result="effect1_foregroundBlur_2002_17158" stdDeviation="7.7"/></filter><filter id="h" width="61.4" height="25.4" x="23.5" y="2.3" color-interpolation-filters="sRGB" filterUnits="userSpaceOnUse"><feFlood flood-opacity="0" result="BackgroundImageFix"/><feBlend in="SourceGraphic" in2="BackgroundImageFix" result="shape"/><feGaussianBlur result="effect1_foregroundBlur_2002_17158" stdDeviation="4.6"/></filter><filter id="i" width="61.4" height="25.4" x="23.5" y="2.3" color-interpolation-filters="sRGB" filterUnits="userSpaceOnUse"><feFlood flood-opacity="0" result="BackgroundImageFix"/><feBlend in="SourceGraphic" in2="BackgroundImageFix" result="shape"/><feGaussianBlur result="effect1_foregroundBlur_2002_17158" stdDeviation="4.6"/></filter><filter id="j" width="56" height="63.6" x="-27.6" y="-22.9" color-interpolation-filters="sRGB" filterUnits="userSpaceOnUse"><feFlood flood-opacity="0" result="BackgroundImageFix"/><feBlend in="SourceGraphic" in2="BackgroundImageFix" result="shape"/><feGaussianBlur result="effect1_foregroundBlur_2002_17158" stdDeviation="4.6"/></filter><filter id="k" width="54.8" height="64.6" x="20.1" y="-38.4" color-interpolation-filters="sRGB" filterUnits="userSpaceOnUse"><feFlood flood-opacity="0" result="BackgroundImageFix"/><feBlend in="SourceGraphic" in2="BackgroundImageFix" result="shape"/><feGaussianBlur result="effect1_foregroundBlur_2002_17158" stdDeviation="4.6"/></filter><filter id="l" width="33.5" height="35.3" x="24.6" y="-11.3" color-interpolation-filters="sRGB" filterUnits="userSpaceOnUse"><feFlood flood-opacity="0" result="BackgroundImageFix"/><feBlend in="SourceGraphic" in2="BackgroundImageFix" result="shape"/><feGaussianBlur result="effect1_foregroundBlur_2002_17158" stdDeviation="4.6"/></filter><filter id="m" width="54.8" height="64.6" x="-29.3" y="6" color-interpolation-filters="sRGB" filterUnits="userSpaceOnUse"><feFlood flood-opacity="0" result="BackgroundImageFix"/><feBlend in="SourceGraphic" in2="BackgroundImageFix" result="shape"/><feGaussianBlur result="effect1_foregroundBlur_2002_17158" stdDeviation="4.6"/></filter><filter id="n" width="54.8" height="64.6" x="-29.3" y="6" color-interpolation-filters="sRGB" filterUnits="userSpaceOnUse"><feFlood flood-opacity="0" result="BackgroundImageFix"/><feBlend in="SourceGraphic" in2="BackgroundImageFix" result="shape"/><feGaussianBlur result="effect1_foregroundBlur_2002_17158" stdDeviation="4.6"/></filter><filter id="o" width="54.8" height="64.6" x="8.2" y="-2.4" color-interpolation-filters="sRGB" filterUnits="userSpaceOnUse"><feFlood flood-opacity="0" result="BackgroundImageFix"/><feBlend in="SourceGraphic" in2="BackgroundImageFix" result="shape"/><feGaussianBlur result="effect1_foregroundBlur_2002_17158" stdDeviation="4.6"/></filter><filter id="p" width="39.4" height="43.6" x="18.7" y="10.6" color-interpolation-filters="sRGB" filterUnits="userSpaceOnUse"><feFlood flood-opacity="0" result="BackgroundImageFix"/><feBlend in="SourceGraphic" in2="BackgroundImageFix" result="shape"/><feGaussianBlur result="effect1_foregroundBlur_2002_17158" stdDeviation="4.6"/></filter></defs></svg>